<?xml version="1.0" encoding="utf-8"?>
<!-- Generator: Adobe Illustrator 25.0.0, SVG Export Plug-In . SVG Version: 6.00 Build 0)  -->
<svg version="1.1" id="Layer_1" xmlns="http://www.w3.org/2000/svg" xmlns:xlink="http://www.w3.org/1999/xlink" x="0px" y="0px"
	 viewBox="0 0 275 202" style="enable-background:new 0 0 275 202;" xml:space="preserve">
<style type="text/css">
	.st0{fill-rule:evenodd;clip-rule:evenodd;fill:#FFFFFF;}
	.st1{fill:#FFFFFF;}
</style>
<path class="st0" d="M-466.9-106.5c-27.9-19.7-43.8-46-43.8-73.9c0-27.9,16-54.2,43.8-73.9c27.9-19.7,66.9-32.3,110.6-32.3
	s82.8,12.5,110.6,32.3c27.9,19.7,43.8,46,43.8,73.9c0,27.9-16,54.2-43.8,73.9c-27.9,19.7-66.9,32.3-110.6,32.3
	S-439.1-86.8-466.9-106.5z M-356.3-62.4c-92.1,0-166.8-52.8-166.8-118c0-65.2,74.7-118,166.8-118c92.1,0,166.8,52.8,166.8,118
	C-189.5-115.2-264.2-62.4-356.3-62.4z"/>
<path class="st1" d="M-480.4-147.9c58.6,97.3,259.7,53.1,245.4-5C-249.4-211-391.3-119-480.4-147.9z"/>
<path class="st1" d="M-232.1-217.3c-58.6-89.8-259.7-49-245.4,4.6C-463.2-159.1-321.2-244-232.1-217.3z"/>
<path class="st1" d="M-490.4-187.4c50.9,33.5,237-74.4,268.3,12.1C-281.8-221-467.2-107.8-490.4-187.4z"/>
<text transform="matrix(1 0 0 1 -149.7334 -132.0514)" class="st1" style="font-family:'EastmanTrial-Medium'; font-size:136.5102px;">Unichem Store</text>
</svg>
