<svg xmlns="http://www.w3.org/2000/svg" viewBox="0 0 333.6 236"><defs><style>.cls-1,.cls-3{fill:#fff;}.cls-1{fill-rule:evenodd;}.cls-2{fill:#f44336;}</style></defs><g id="Layer_2" data-name="Layer 2"><g id="Layer_1-2" data-name="Layer 1"><g id="Layer_2-2" data-name="Layer 2"><g id="Layer_1-2-2" data-name="Layer 1-2"><g id="Layer_2-2-2" data-name="Layer 2-2"><g id="Layer_1-2-2-2" data-name="Layer 1-2-2"><path class="cls-1" d="M56.2,191.9c-27.9-19.7-43.8-46-43.8-73.9s16-54.2,43.8-73.9,66.9-32.3,110.6-32.3,82.8,12.5,110.6,32.3,43.8,46,43.8,73.9-16,54.2-43.8,73.9-66.9,32.3-110.6,32.3S84,211.6,56.2,191.9ZM166.8,236C74.7,236,0,183.2,0,118S74.7,0,166.8,0,333.6,52.8,333.6,118,258.9,236,166.8,236Z"/><path class="cls-2" d="M42.7,150.5c58.6,97.3,259.7,53.1,245.4-5S131.8,179.4,42.7,150.5Z"/><path class="cls-2" d="M291,81.1C232.4-8.7,31.3,32.1,45.6,85.7S201.9,54.4,291,81.1Z"/><path class="cls-3" d="M32.7,111c50.9,33.5,237-74.4,268.3,12.1C241.3,77.4,55.9,190.6,32.7,111Z"/></g></g></g></g></g></g></svg>