<svg width="275" height="202" viewBox="0 0 275 202" fill="none" xmlns="http://www.w3.org/2000/svg">
<path fill-rule="evenodd" clip-rule="evenodd" d="M46.5636 163.991C23.711 147.174 10.6071 124.763 10.6071 100.934C10.6071 77.1039 23.711 54.6936 46.5636 37.8765C69.4118 21.0626 101.46 10.3579 137.302 10.3579C173.144 10.3579 205.192 21.0626 228.04 37.8765C250.893 54.6936 263.997 77.1039 263.997 100.934C263.997 124.763 250.893 147.174 228.04 163.991C205.192 180.805 173.144 191.51 137.302 191.51C101.46 191.51 69.4118 180.805 46.5636 163.991ZM137.302 201.575C61.7712 201.575 0.541484 156.516 0.541484 100.934C0.541484 45.351 61.7712 0.292236 137.302 0.292236C212.833 0.292236 274.062 45.351 274.062 100.934C274.062 156.516 212.833 201.575 137.302 201.575Z" fill="black"/>
<path d="M31.3764 122.511C81.3816 213.135 252.976 171.925 240.744 117.859C228.511 63.7933 107.399 149.467 31.3764 122.511Z" fill="#EF1515"/>
<path d="M243.228 76.0169C193.222 -14.6069 21.6276 26.6035 33.8602 80.6691C46.0928 134.735 167.205 49.0608 243.228 76.0169Z" fill="#EF1515"/>
<path d="M22.8613 95.5519C58.4923 143.887 223.141 38.3853 251.743 100.202C200.781 61.1587 42.6372 163.407 22.8613 95.5519Z" fill="black"/>
</svg>
